<svg width="140" height="36" viewBox="0 0 140 36" fill="none" xmlns="http://www.w3.org/2000/svg">
<g clip-path="url(#clip0_1_3505)">
<path d="M15.2638 15.1099C15.2638 16.2874 15.6528 17.8709 16.9319 19.1379C18.9968 21.1859 21.8009 21.1828 23.5872 20.2198C25.7751 19.0422 30.6954 15.5112 25.5868 0.865234C25.5868 7.77768 15.2638 8.48143 15.2638 15.1084V15.1099Z" fill="#FF9C1A"/>
<path d="M19.9646 6.91965C19.6254 5.10781 19.0824 3.25122 18.267 0.866821C18.267 7.77927 7.94397 8.48301 7.94397 15.11C7.94397 16.2875 8.33299 17.8709 9.61208 19.138C11.677 21.1859 14.5028 21.1798 16.2674 20.2198C12.1578 15.8801 13.6081 10.8551 19.9631 6.91811L19.9646 6.91965Z" fill="#0DA9FF"/>
<path d="M12.6481 6.91983C12.3088 5.108 11.7658 3.25141 10.9504 0.867004C10.9504 7.77945 0.62738 8.4832 0.62738 15.1101C0.62738 18.51 3.40342 20.0055 3.40342 20.0055C3.40342 20.0055 2.71096 22.5056 3.14044 25.5506L4.46466 25.333C3.81733 23.0998 4.21413 20.666 4.25615 20.4284C5.94916 21.1012 7.69818 20.9021 8.95082 20.22C4.84123 15.8802 6.29149 10.8553 12.6465 6.91829L12.6481 6.91983Z" fill="#00A443"/>
<path d="M39.7842 17.6332C39.2318 17.9696 38.4927 18.1363 37.5637 18.1363C36.6347 18.1363 35.8427 17.9033 35.2218 17.4372C34.6009 16.9711 34.1652 16.3708 33.9147 15.6362L32.2217 16.3445C32.4598 17.0668 32.827 17.6949 33.3218 18.2289C33.8167 18.7644 34.4251 19.1749 35.1471 19.4605C35.8676 19.746 36.6736 19.8895 37.5652 19.8895C38.5938 19.8895 39.4839 19.7305 40.237 19.4142C40.9902 19.0978 41.569 18.6579 41.9767 18.0993C42.3844 17.539 42.5882 16.8801 42.5882 16.1207C42.5882 15.5111 42.4435 14.9694 42.1557 14.4972C41.8662 14.0249 41.4305 13.6113 40.8486 13.2564C40.265 12.9014 39.5275 12.6067 38.6374 12.3705L37.0191 11.9415C36.2659 11.7301 35.6886 11.4847 35.2887 11.2038C34.8872 10.9245 34.6865 10.5031 34.6865 9.94446C34.6865 9.38578 34.9339 8.97989 35.4303 8.65734C35.9251 8.33479 36.588 8.17275 37.4159 8.17275C38.2437 8.17275 38.8863 8.35023 39.4574 8.70519C40.0285 9.06015 40.4269 9.60956 40.6525 10.3565L42.3642 9.72222C42.1385 8.98761 41.7993 8.38109 41.3481 7.90267C40.8968 7.42425 40.3351 7.05694 39.6644 6.80229C38.9937 6.54765 38.2375 6.41956 37.3972 6.41956C36.4558 6.41956 35.631 6.57543 34.923 6.88563C34.2135 7.19738 33.6626 7.62951 33.2674 8.18201C32.8721 8.73605 32.6745 9.37344 32.6745 10.0942C32.6745 10.6914 32.8037 11.2269 33.0604 11.6992C33.3172 12.1714 33.7093 12.5758 34.2368 12.9122C34.7643 13.2487 35.4039 13.5218 36.1554 13.7333L37.7738 14.1623C38.4506 14.3367 38.9968 14.5234 39.4107 14.7225C39.8247 14.9216 40.1281 15.1485 40.3226 15.4031C40.5171 15.6578 40.6136 15.9541 40.6136 16.289C40.6136 16.8492 40.3382 17.2967 39.7858 17.6332H39.7842Z" fill="#00A443"/>
<path d="M46.2374 15.0574H49.1721C50.1758 15.0574 51.0379 14.8892 51.7599 14.5543C52.4804 14.2179 53.039 13.7333 53.4342 13.099C53.8295 12.4647 54.0271 11.7177 54.0271 10.8597C54.0271 9.54168 53.5945 8.50612 52.7293 7.75299C51.8642 6.99986 50.6722 6.62329 49.1535 6.62329H44.2985V19.6858H46.2374V15.0574ZM49.0025 8.35796C49.944 8.35796 50.6769 8.56631 51.2044 8.983C51.7319 9.39969 51.9949 10.0247 51.9949 10.8581C51.9949 11.6915 51.7319 12.3011 51.2044 12.724C50.6769 13.1468 49.944 13.3583 49.0025 13.3583H46.2358V8.35642H49.0025V8.35796Z" fill="#00A443"/>
<path d="M60.9142 19.6858H67.9695V17.9495H60.9142V13.9184H67.1976V12.2023H60.9142V8.35792H67.9695V6.6217H60.9142H59.7845H58.9753V19.6858H59.7845H60.9142Z" fill="#00A443"/>
<path d="M70.8109 19.3493C71.1999 19.5731 71.6761 19.6858 72.2409 19.6858H73.2757V18.0807H72.5226C72.1585 18.0807 71.8986 17.985 71.7415 17.7906C71.5843 17.5977 71.5065 17.3214 71.5065 16.9603V6.6217H69.6625V17.0729C69.6625 17.5961 69.7559 18.0499 69.9442 18.4357C70.1325 18.8215 70.4203 19.1255 70.8094 19.3509L70.8109 19.3493Z" fill="#00A443"/>
<path d="M81.1027 16.6439C80.902 17.0298 80.6639 17.343 80.3884 17.5869C80.113 17.8292 79.8049 18.0036 79.4657 18.1101C79.1265 18.2166 78.7623 18.269 78.3749 18.269C77.8349 18.269 77.3525 18.144 76.9262 17.8955C76.4998 17.6471 76.1637 17.2767 75.9194 16.7844C75.7249 16.3924 75.6082 15.9217 75.5693 15.3753H82.6837C82.6961 15.2889 82.7023 15.2009 82.7023 15.1145V14.8722C82.7023 13.9015 82.5109 13.0527 82.1281 12.3242C81.7454 11.5958 81.2209 11.0309 80.5565 10.6266C79.8921 10.2223 79.1327 10.0201 78.28 10.0201C77.6031 10.0201 76.9853 10.1358 76.4267 10.3658C75.8681 10.5957 75.3826 10.9291 74.9686 11.3643C74.5547 11.7995 74.2373 12.3196 74.0179 12.923C73.7985 13.5265 73.688 14.2009 73.688 14.9478C73.688 15.9309 73.8887 16.7921 74.2902 17.5329C74.6917 18.2737 75.2441 18.8524 75.9459 19.2691C76.6476 19.6858 77.4568 19.8941 78.3733 19.8941C78.9257 19.8941 79.461 19.8154 79.9823 19.6611C80.502 19.5052 80.9798 19.2506 81.4123 18.8956C81.8449 18.5406 82.2184 18.0838 82.5312 17.5236L81.1011 16.647L81.1027 16.6439ZM76.2773 12.4353C76.5092 12.1437 76.7939 11.9261 77.1331 11.7825C77.4724 11.639 77.8489 11.568 78.2629 11.568C79.016 11.568 79.6337 11.8412 80.1161 12.389C80.4616 12.781 80.681 13.3227 80.779 14.0126H75.6269C75.6564 13.8336 75.6922 13.6592 75.7405 13.5002C75.8649 13.0835 76.0439 12.7286 76.2773 12.4369V12.4353Z" fill="#00A443"/>
<path d="M86.1273 19.2475C86.8415 19.6642 87.6507 19.8725 88.5547 19.8725C89.1694 19.8725 89.756 19.7799 90.3147 19.5932C90.8733 19.4064 91.3806 19.1024 91.8381 18.6795C92.2955 18.2567 92.6503 17.7088 92.9009 17.0375L91.3199 16.2905C91.0445 16.9881 90.6679 17.485 90.1917 17.7844C89.714 18.0823 89.1694 18.232 88.5547 18.232C88.0397 18.232 87.5666 18.107 87.134 17.8585C86.7015 17.61 86.356 17.2396 86.0993 16.7473C85.8425 16.2566 85.7134 15.6562 85.7134 14.9463C85.7134 14.4123 85.788 13.9385 85.939 13.528C86.0899 13.1175 86.2969 12.7749 86.5599 12.5017C86.8228 12.2285 87.1278 12.0202 87.4717 11.8767C87.8172 11.7331 88.1766 11.6622 88.5532 11.6622C89.1678 11.6622 89.714 11.8088 90.1902 12.1005C90.6663 12.3937 91.0429 12.8937 91.3183 13.6021L92.8993 12.8551C92.6488 12.1714 92.294 11.6205 91.8365 11.2038C91.379 10.7871 90.8702 10.4846 90.3131 10.2994C89.7545 10.1127 89.1678 10.0201 88.5532 10.0201C87.8763 10.0201 87.2523 10.1389 86.6812 10.375C86.1101 10.6112 85.6091 10.9476 85.1765 11.3828C84.7439 11.818 84.4109 12.3381 84.1791 12.9416C83.9472 13.545 83.8305 14.2132 83.8305 14.9478C83.8305 15.9186 84.0344 16.7736 84.442 17.5144C84.8497 18.2551 85.4115 18.8323 86.1257 19.2506L86.1273 19.2475Z" fill="#00A443"/>
<path d="M94.9704 16.755C94.9704 17.3276 95.0793 17.8369 95.3003 18.2844C95.5197 18.732 95.8434 19.0777 96.2697 19.32C96.6961 19.5623 97.2236 19.6842 97.8507 19.6842H99.0364V18.0792H98.0577C97.6313 18.0792 97.3201 17.9542 97.1256 17.7057C96.931 17.4572 96.8346 17.0961 96.8346 16.6223V11.7331H99.0364V10.2022H96.8346V7.08624L94.972 8.20514V10.2022H93.2027V11.7331H94.972V16.7535L94.9704 16.755Z" fill="#00A443"/>
<path d="M102.233 14.6283C102.233 13.8196 102.44 13.173 102.854 12.6869C103.268 12.2023 103.795 11.96 104.435 11.96H105.376V10.0185H104.83C104.265 10.0185 103.761 10.162 103.316 10.4475C102.871 10.733 102.51 11.1698 102.234 11.7532V10.2037H100.39V19.6842H102.234V14.6268L102.233 14.6283Z" fill="#00A443"/>
<path d="M108.46 10.2053H106.616V19.6858H108.46V10.2053Z" fill="#00A443"/>
<path d="M106.646 8.27459C106.89 8.49219 107.189 8.60176 107.539 8.60176C107.889 8.60176 108.191 8.49219 108.441 8.27459C108.692 8.05698 108.818 7.76684 108.818 7.40725C108.818 7.04766 108.692 6.739 108.441 6.52139C108.191 6.30379 107.889 6.19421 107.539 6.19421C107.189 6.19421 106.89 6.30379 106.646 6.52139C106.401 6.739 106.278 7.03531 106.278 7.40725C106.278 7.77918 106.401 8.05698 106.646 8.27459Z" fill="#00A443"/>
<path d="M117.549 16.2889C117.274 16.9865 116.897 17.4834 116.421 17.7828C115.943 18.0807 115.399 18.2304 114.784 18.2304C114.269 18.2304 113.796 18.1054 113.363 17.8569C112.931 17.6085 112.585 17.2381 112.328 16.7457C112.072 16.255 111.942 15.6546 111.942 14.9447C111.942 14.4107 112.017 13.9369 112.168 13.5264C112.319 13.1159 112.526 12.7733 112.789 12.5001C113.052 12.227 113.357 12.0186 113.701 11.8751C114.046 11.7316 114.406 11.6606 114.782 11.6606C115.397 11.6606 115.943 11.8072 116.419 12.0989C116.895 12.3921 117.272 12.8921 117.547 13.6005L119.128 12.8535C118.878 12.1699 118.523 11.6189 118.066 11.2022C117.608 10.7855 117.099 10.483 116.542 10.2978C115.984 10.1111 115.397 10.0185 114.782 10.0185C114.105 10.0185 113.481 10.1373 112.91 10.3735C112.339 10.6096 111.838 10.946 111.406 11.3812C110.973 11.8164 110.64 12.3365 110.408 12.94C110.176 13.5434 110.06 14.2116 110.06 14.9463C110.06 15.917 110.263 16.772 110.671 17.5128C111.079 18.2536 111.641 18.8307 112.355 19.249C113.069 19.6657 113.88 19.874 114.782 19.874C115.397 19.874 115.984 19.7814 116.542 19.5947C117.101 19.4079 117.608 19.1039 118.066 18.681C118.523 18.2582 118.878 17.7103 119.128 17.039L117.547 16.292L117.549 16.2889Z" fill="#00A443"/>
<path d="M122.309 10.2053H120.465V19.6858H122.309V10.2053Z" fill="#00A443"/>
<path d="M120.493 8.27459C120.738 8.49219 121.036 8.60176 121.386 8.60176C121.737 8.60176 122.038 8.49219 122.289 8.27459C122.539 8.05698 122.665 7.76684 122.665 7.40725C122.665 7.04766 122.539 6.739 122.289 6.52139C122.038 6.30379 121.737 6.19421 121.386 6.19421C121.036 6.19421 120.738 6.30379 120.493 6.52139C120.249 6.739 120.126 7.03531 120.126 7.40725C120.126 7.77918 120.249 8.05698 120.493 8.27459Z" fill="#00A443"/>
<path d="M127.164 7.08937L125.301 8.20827V10.2053H123.532V11.7363H125.301V16.7566C125.301 17.3292 125.41 17.8385 125.631 18.286C125.851 18.7336 126.174 19.0793 126.601 19.3216C127.027 19.5639 127.555 19.6858 128.182 19.6858H129.367V18.0808H128.389C127.962 18.0808 127.651 17.9558 127.457 17.7073C127.262 17.4588 127.166 17.0977 127.166 16.6239V11.7347H129.367V10.2038H127.166V7.08783L127.164 7.08937Z" fill="#00A443"/>
<path d="M137.4 10.2053L135.217 14.6839C135.078 14.971 134.896 15.3614 134.671 15.8599C134.445 15.363 134.263 14.9648 134.124 14.6654L131.999 10.2053H129.892L133.712 17.894L131.361 22.7832H133.393L139.434 10.2053H137.401H137.4Z" fill="#00A443"/>
<path d="M42.0981 30.046V31.7251C41.6842 31.1525 41.3512 30.6988 41.1007 30.3623L34.797 21.9081H33.0464V34.9706H34.9853V25.1553C35.3992 25.7278 35.7322 26.1815 35.9828 26.518L42.2864 34.9722H44.0354V21.9097H42.0981V30.046Z" fill="#00A443"/>
<path d="M53.1619 25.9207C52.4337 25.5102 51.5996 25.3049 50.6597 25.3049C49.9704 25.3049 49.3293 25.4238 48.7411 25.6599C48.1513 25.896 47.6378 26.2355 47.199 26.6769C46.7602 27.1183 46.421 27.6415 46.1829 28.2449C45.9448 28.8484 45.825 29.5104 45.825 30.2327C45.825 31.2034 46.0351 32.0615 46.4552 32.8085C46.8754 33.5554 47.4527 34.1372 48.1856 34.5524C48.92 34.9691 49.7494 35.1774 50.6784 35.1774C51.3678 35.1774 52.0073 35.0555 52.597 34.8132C53.1868 34.5709 53.7003 34.2314 54.1391 33.7962C54.5779 33.361 54.9172 32.8424 55.1552 32.2374C55.3933 31.634 55.5131 30.9658 55.5131 30.2312C55.5131 29.2481 55.3031 28.3869 54.8829 27.6461C54.4628 26.9053 53.8886 26.3312 53.1619 25.9207ZM53.4062 31.6124C53.2553 32.0229 53.0483 32.3686 52.7853 32.648C52.5224 32.9273 52.208 33.1418 51.8439 33.2915C51.4798 33.4412 51.0845 33.5153 50.6582 33.5153C50.1058 33.5153 49.6078 33.3841 49.1628 33.1233C48.7178 32.8625 48.3661 32.4859 48.1093 31.9936C47.8526 31.5028 47.7234 30.9148 47.7234 30.2296C47.7234 29.7064 47.795 29.2465 47.9397 28.8484C48.0844 28.4502 48.2883 28.1076 48.5513 27.8221C48.8142 27.5365 49.1286 27.322 49.4927 27.1785C49.8568 27.035 50.2458 26.964 50.6597 26.964C51.237 26.964 51.7474 27.0952 52.1925 27.356C52.6375 27.6168 52.9892 27.9903 53.2459 28.4749C53.5027 28.9595 53.6318 29.5444 53.6318 30.2296C53.6318 30.7404 53.5571 31.2003 53.4062 31.6109V31.6124Z" fill="#00A443"/>
<path d="M60.0193 25.734C59.5743 26.0195 59.2132 26.4563 58.9378 27.0396V25.4901H57.0939V34.9706H58.9378V29.9132C58.9378 29.1046 59.1448 28.4579 59.5587 27.9718C59.9726 27.4872 60.5001 27.2449 61.1397 27.2449H62.0811V25.3034H61.5349C60.9701 25.3034 60.4659 25.4469 60.0208 25.7324L60.0193 25.734Z" fill="#00A443"/>
<path d="M66.1442 22.3757L64.2816 23.4946V25.4917H62.5123V27.0226H64.2816V32.043C64.2816 32.6156 64.3905 33.1248 64.6115 33.5724C64.8309 34.02 65.1545 34.3657 65.5809 34.608C66.0073 34.8503 66.5348 34.9722 67.1619 34.9722H68.3476V33.3671H67.3688C66.9425 33.3671 66.6313 33.2421 66.4368 32.9937C66.2422 32.7452 66.1458 32.3841 66.1458 31.9103V27.0211H68.3476V25.4901H66.1458V22.3742L66.1442 22.3757Z" fill="#00A443"/>
<path d="M76.1917 25.7525C75.6641 25.4546 75.0557 25.3049 74.3664 25.3049C73.7144 25.3049 73.1028 25.4762 72.5318 25.8189C72.1225 26.0642 71.7942 26.4238 71.5437 26.8945V21.9097H69.6997V34.9722H71.5437V29.3546C71.5437 28.5968 71.7662 28.0011 72.2112 27.572C72.6562 27.143 73.2304 26.9285 73.9322 26.9285C74.5593 26.9285 75.0666 27.1399 75.4556 27.5628C75.8446 27.9856 76.0392 28.5582 76.0392 29.2789V34.9706H77.9018V28.9795C77.9018 28.2326 77.7477 27.5828 77.4412 27.0288C77.1331 26.4748 76.716 26.0488 76.1901 25.7509L76.1917 25.7525Z" fill="#00A443"/>
<path d="M98.4139 21.9097L95.9678 30.1957C95.8931 30.4688 95.8168 30.7374 95.7421 30.9982C95.6674 31.259 95.5787 31.5584 95.4792 31.8933C95.2535 31.1849 95.0715 30.6185 94.933 30.1957L92.2425 21.8912H90.4919L87.8015 30.2327C87.7128 30.5059 87.6288 30.7744 87.5478 31.0352C87.4669 31.2961 87.3751 31.5893 87.2755 31.9118C87.0748 31.2035 86.9114 30.6371 86.7869 30.2142L84.3594 21.9097H82.3459L86.2968 34.9907H88.1034L90.8312 26.6862C90.9697 26.288 91.1439 25.7525 91.3587 25.0812C91.5843 25.7525 91.7601 26.288 91.8862 26.6862L94.614 34.9907H96.4206L100.371 21.9097H98.4139Z" fill="#00A443"/>
<path d="M107.125 25.9115C106.46 25.5071 105.701 25.3049 104.848 25.3049C104.171 25.3049 103.554 25.4207 102.995 25.6506C102.436 25.8806 101.951 26.2139 101.537 26.6491C101.123 27.0844 100.806 27.6045 100.586 28.2079C100.367 28.8113 100.256 29.4857 100.256 30.2327C100.256 31.2158 100.457 32.0769 100.859 32.8177C101.26 33.5585 101.812 34.1372 102.514 34.5539C103.216 34.9706 104.025 35.179 104.942 35.179C105.494 35.179 106.029 35.1003 106.551 34.9459C107.07 34.7901 107.548 34.5354 107.981 34.1805C108.413 33.8255 108.787 33.3687 109.1 32.8085L107.669 31.9319C107.469 32.3177 107.231 32.631 106.955 32.8748C106.68 33.1171 106.372 33.2915 106.032 33.398C105.693 33.5045 105.329 33.557 104.942 33.557C104.402 33.557 103.919 33.432 103.493 33.1835C103.067 32.935 102.73 32.5646 102.486 32.0723C102.292 31.6803 102.175 31.2096 102.136 30.6633H109.25C109.263 30.5769 109.269 30.4889 109.269 30.4025V30.1602C109.269 29.1894 109.078 28.3406 108.695 27.6122C108.312 26.8837 107.788 26.3189 107.123 25.9145L107.125 25.9115ZM102.844 27.7217C103.076 27.4301 103.361 27.2125 103.7 27.0689C104.039 26.9254 104.416 26.8544 104.83 26.8544C105.583 26.8544 106.201 27.1276 106.683 27.6754C107.028 28.0674 107.248 28.6091 107.346 29.299H102.194C102.223 29.12 102.259 28.9456 102.307 28.7866C102.433 28.3699 102.611 28.015 102.844 27.7233V27.7217Z" fill="#00A443"/>
<path d="M115.252 29.5598L114.311 29.336C113.934 29.2372 113.601 29.1308 113.314 29.0181C113.024 28.9054 112.792 28.7696 112.618 28.6076C112.442 28.4455 112.355 28.2341 112.355 27.9733C112.355 27.6492 112.521 27.3853 112.853 27.18C113.186 26.9748 113.622 26.8729 114.16 26.8729C114.698 26.8729 115.204 26.9933 115.637 27.2371C116.069 27.4794 116.373 27.893 116.549 28.4779L118.092 27.9177C117.929 27.3452 117.66 26.8667 117.283 26.4809C116.906 26.0951 116.452 25.8034 115.918 25.6043C115.385 25.4052 114.8 25.3065 114.158 25.3065C113.443 25.3065 112.812 25.4222 112.268 25.6522C111.722 25.8821 111.295 26.2 110.989 26.6044C110.681 27.0087 110.528 27.4717 110.528 27.9949C110.528 28.6909 110.76 29.2789 111.224 29.7589C111.687 30.2373 112.434 30.6015 113.463 30.85L114.423 31.0923C115.1 31.242 115.599 31.4133 115.918 31.6062C116.239 31.7991 116.398 32.0692 116.398 32.418C116.398 32.7668 116.209 33.0554 115.833 33.2853C115.456 33.5153 114.936 33.631 114.27 33.631C113.894 33.631 113.53 33.5693 113.18 33.4443C112.828 33.3193 112.525 33.131 112.268 32.8748C112.011 32.6202 111.82 32.2992 111.694 31.9133L110.189 32.5661C110.415 33.1758 110.729 33.6696 111.13 34.0493C111.532 34.4289 112.002 34.7113 112.542 34.8981C113.08 35.0848 113.657 35.1774 114.272 35.1774C115.075 35.1774 115.771 35.0555 116.36 34.8132C116.95 34.5709 117.404 34.2375 117.725 33.8147C118.046 33.3918 118.204 32.9072 118.204 32.3593C118.204 31.6494 117.963 31.0691 117.479 30.6139C116.997 30.1601 116.253 29.8083 115.249 29.5598H115.252Z" fill="#00A443"/>
<path d="M122.272 22.3757L120.409 23.4946V25.4917H118.64V27.0226H120.409V32.043C120.409 32.6156 120.518 33.1248 120.739 33.5724C120.959 34.02 121.282 34.3657 121.709 34.608C122.135 34.8503 122.662 34.9722 123.29 34.9722H124.475V33.3671H123.497C123.07 33.3671 122.759 33.2421 122.564 32.9937C122.37 32.7452 122.273 32.3841 122.273 31.9103V27.0211H124.475V25.4901H122.273V22.3742L122.272 22.3757Z" fill="#00A443"/>
</g>
<defs>
<clipPath id="clip0_1_3505">
<rect width="139.983" height="35.4386" fill="white" transform="translate(0 0.302795)"/>
</clipPath>
</defs>
</svg>
